<svg width="40" height="40" viewBox="0 0 40 40" fill="none" xmlns="http://www.w3.org/2000/svg">
<path fill-rule="evenodd" clip-rule="evenodd" d="M24.0002 2.3091C21.525 0.880039 18.4754 0.880039 16.0002 2.3091L6.67969 7.6903C4.20448 9.11936 2.67969 11.7604 2.67969 14.6185V25.3809C2.67969 28.239 4.20448 30.88 6.67969 32.3091L16.0002 37.6903C18.4754 39.1194 21.525 39.1194 24.0002 37.6903L33.3207 32.3091C35.7959 30.88 37.3207 28.239 37.3207 25.3809V14.6185C37.3207 11.7604 35.7959 9.11936 33.3207 7.6903L24.0002 2.3091ZM20.0002 29.9997C25.523 29.9997 30.0002 25.5225 30.0002 19.9997C30.0002 14.4769 25.523 9.9997 20.0002 9.9997C14.4773 9.9997 10.0002 14.4769 10.0002 19.9997C10.0002 25.5225 14.4773 29.9997 20.0002 29.9997Z" fill="#fff"/>
<circle cx="19.9991" cy="20.0001" r="4.44444" fill="#fff"/>
</svg>
