<svg width="24" height="24" viewBox="0 0 24 24" fill="none" xmlns="http://www.w3.org/2000/svg">
<path d="M18.8438 9.22217C17.7188 7.70074 16.125 7.52175 15.5625 7.52175C14.1563 7.34276 12.8438 8.32721 12.0938 8.32721C11.3438 8.32721 10.3125 7.52175 9.09375 7.61125C6.9375 7.61125 4.5 9.31166 4.5 12.7125C4.5 16.3818 7.5 20.5881 9.375 20.4986C10.5937 20.4986 10.875 19.7826 12.2813 19.7826C13.6875 19.7826 13.9688 20.4986 15.2812 20.4986C17.0625 20.4986 18.8438 17.6347 19.5 16.0238C16.5 14.5024 16.125 10.9226 18.8438 9.22217Z" stroke="#F7FBFA" stroke-width="1.5" stroke-linecap="round" stroke-linejoin="round"/>
<path d="M15.9767 1.5C13.3252 1.5849 11.2419 3.70748 11.526 5.49044C13.8934 5.66025 16.2608 3.53767 15.9767 1.5Z" stroke="#F7FBFA" stroke-width="1.5" stroke-linecap="round" stroke-linejoin="round"/>
</svg>
