<svg width="24" height="24" viewBox="0 0 24 24" fill="none" xmlns="http://www.w3.org/2000/svg">
<path d="M12 15.5C13.933 15.5 15.5 13.933 15.5 12C15.5 10.067 13.933 8.5 12 8.5C10.067 8.5 8.5 10.067 8.5 12C8.5 13.933 10.067 15.5 12 15.5Z" stroke="#686A6C" stroke-width="1.5" stroke-miterlimit="10" stroke-linecap="round" stroke-linejoin="round"/>
<path d="M21 12.5294C21 18.5 19 21 12 21C5 21 3 19 3 12C3 5.5 5 3 12 3C19.5 3 21 5.5 21 12.5294Z" stroke="#686A6C" stroke-width="1.5" stroke-linecap="round" stroke-linejoin="round"/>
<path d="M16.5 7.5C16.7761 7.5 17 7.27614 17 7C17 6.72386 16.7761 6.5 16.5 6.5C16.2239 6.5 16 6.72386 16 7C16 7.27614 16.2239 7.5 16.5 7.5Z" fill="#686A6C" stroke="#686A6C" stroke-width="1.5" stroke-linecap="round" stroke-linejoin="round"/>
</svg>
