<svg width="48" height="48" viewBox="0 0 48 48" fill="none" xmlns="http://www.w3.org/2000/svg">
<rect x="1" y="1" width="46" height="46" rx="23" fill="#F7FBFA"/>
<path d="M24 27C25.6569 27 27 25.6569 27 24C27 22.3431 25.6569 21 24 21C22.3431 21 21 22.3431 21 24C21 25.6569 22.3431 27 24 27Z" stroke="#686A6C" stroke-width="1.5" stroke-linecap="round" stroke-linejoin="round"/>
<path d="M15.9984 19.4757C15.1123 21 15.4029 27.5 15.9984 28.5243C16.9984 30.2448 21.9984 33 23.9984 33C25.9983 33 31.1406 30 31.9984 28.5243C32.8562 27.0486 32.8561 20.9514 31.9984 19.4757C31.1406 18 25.9984 15 23.9984 15C21.9983 15 16.8845 17.9514 15.9984 19.4757Z" stroke="#686A6C" stroke-width="1.5" stroke-linecap="round" stroke-linejoin="round"/>
<rect x="1" y="1" width="46" height="46" rx="23" stroke="#E1E2E2" stroke-width="2"/>
</svg>
