<svg width="60" height="60" viewBox="0 0 60 60" fill="none" xmlns="http://www.w3.org/2000/svg">
<path d="M28.7071 35.7929C29.0976 36.1834 29.0976 36.8166 28.7071 37.2071C28.3166 37.5976 27.6834 37.5976 27.2929 37.2071L21.5 31.4142C20.719 30.6332 20.719 29.3668 21.5 28.5858L27.2929 22.7929C27.6834 22.4024 28.3166 22.4024 28.7071 22.7929C29.0976 23.1834 29.0976 23.8166 28.7071 24.2071L23.9142 29H38C38.5523 29 39 29.4477 39 30C39 30.5523 38.5523 31 38 31H23.9142L28.7071 35.7929Z" fill="#202025"/>
<rect x="1" y="1" width="58" height="58" rx="29" stroke="#E1E2E2" stroke-width="2"/>
</svg>
