<svg width="24" height="24" viewBox="0 0 24 24" fill="none" xmlns="http://www.w3.org/2000/svg">
<path d="M19.1893 8.68435C19.1893 8.89786 19.1893 9.00461 19.1893 9.21811C19.1893 14.2354 15.4615 20 8.64497 20C6.6213 20 4.59763 19.4662 3 18.292C3.31953 18.292 3.63905 18.3987 3.85207 18.3987C5.55621 18.3987 7.15385 17.865 8.43195 16.7975C6.83432 16.7975 5.4497 15.7299 4.91716 14.1287C5.4497 14.1287 6.08876 14.1287 6.6213 13.9152C4.91716 13.5949 3.63905 11.9936 3.63905 10.2856C4.1716 10.6059 4.70414 10.7126 5.3432 10.7126C3.74556 9.64512 3.21302 7.40334 4.1716 5.69531C6.08876 8.04385 8.85799 9.43161 11.8402 9.53836C11.5207 8.25735 11.9467 6.86958 12.9053 6.01557C14.3964 4.6278 16.7396 4.6278 18.1243 6.22907C18.9763 6.01557 19.7219 5.80207 20.4675 5.26831C20.1479 6.12232 19.6154 6.86958 18.8698 7.40334C19.6154 7.29659 20.3609 7.08308 21 6.76283C20.4675 7.51009 19.8284 8.1506 19.1893 8.68435Z" stroke="#686A6C" stroke-width="1.5" stroke-linecap="round" stroke-linejoin="round"/>
</svg>
